<?xml version="1.0" encoding="UTF-8"?>
<svg xmlns="http://www.w3.org/2000/svg" version="1.1" viewBox="0 0 350 250">
  <!-- Generator: Adobe Illustrator 29.5.1, SVG Export Plug-In . SVG Version: 2.1.0 Build 141)  -->
  <defs>
    <style>
      .st0 {
        fill: #fff;
      }

      .st1 {
        opacity: .5;
      }

      .st2 {
        fill: #c7b299;
      }

      .st3 {
        fill: #998675;
      }
    </style>
  </defs>
  <g id="Lager_1">
    <path class="st2" d="M95.55,140.33c1.93,0,1.93-3,0-3s-1.93,3,0,3h0Z"/>
    <path class="st2" d="M90.45,136.9l-.1.32,7.23-5.51-.5-.04,6.48,3.71-.22-.4-1.17,9.09c-2.12,2.08-1.79,1.49,1.14,1.48,1.32,0,2.64,0,3.96-.01,2.97,0,5.93-.02,8.9-.03,5.93-.02,11.87-.04,17.8-.05,11.87-.04,23.73-.07,35.6-.11,23.73-.07,47.46-.14,71.19-.22,9.65-.03,9.67-15.03,0-15-25.38.08-50.76.15-76.14.23-12.52.04-25.05.08-37.57.11-6.26.02-12.52.04-18.79.06-5.53.02-12.4-1.28-16.69,2.93-2.41,2.36-2.79,6.2-1.17,9.09s4.09,3.92,7.2,4.15c3.3.24,6.34-2.51,7.23-5.51l.1-.32c2.77-9.27-11.7-13.23-14.46-3.99h0Z"/>
    <path class="st2" d="M89.79,133.09c-3.3,3.71-7.97,4.27-12.73,4.35-2.5.04-9.77.66-11.1-2.25-1.91-4.19,5.5-7.35,8.15-8.2,5.78-1.86,11.83-2.5,17.49-4.8,5.97-2.43,7.51-9.91,1.79-13.71s-13.98-11.01-15.09-18.16c-.98-6.29,10.53-5.19,14.18-4.71,3.07.41,6.67,1.25,9.04,3.37s3.11,5.64,4.96,8.22c5.43,7.58,14.74,7.15,23.13,7.3,19.25.34,38.48-.62,57.72-.75s37.84,2.86,56.08-1.23c9.41-2.11,5.43-16.58-3.99-14.46-16.13,3.62-33.7.63-50.1.69-17.25.06-34.5.85-51.75.83-4.31,0-8.62-.05-12.93-.19-3.55-.11-5.45.33-7.1-2.99-3.2-6.44-7.59-10.83-14.38-13.45-11.5-4.43-29.43-4.62-37.09,6.68-10.29,15.18,7.91,33.96,19.74,41.8l1.79-13.71c-9.01,3.66-19.28,3.67-27.39,9.52-7.61,5.49-12.21,16.09-7.49,24.98,4.33,8.15,13.69,10.07,22.17,10.21,9.23.15,19.08-1.52,25.5-8.74s-4.18-17.84-10.61-10.61h0Z"/>
    <path class="st2" d="M227.52,103.69c8.87,1.14,17.63-1.62,24.54-7.22s11.58-12.41,20.35-14.95c5.13-1.48,12.75-1.5,13.17,5.4.49,8.09-7.83,14.13-13.31,18.72-4.06,3.4-2.01,9.18,1.52,11.78,6.23,4.59,10.46,11.87,11.68,19.49.28,1.77-.03,3.69.3,5.42.01.07-.29,1.92.22,1.12.37-.57-.5.07-1.12.18-4.71.88-9.08,2.83-13.92,3.23-8.47.69-13.68-3.08-19.44-8.73s-11.5-11.02-19.44-13.17l-1.99,14.73c12.76-1.71,22.99,1.5,34.27,7.15,8.34,4.17,27.79,9.78,27.37-6.15-.15-5.58-3.95-9.92-8.14-13.14-3.85-2.95-9.22-4.78-12.33-8.58-3.32-4.05,2.57-10.01,4.77-13.48,3.81-6.01,7.62-12.03,11.44-18.04,3.65-5.76-2.36-12.45-8.47-11.02-18.39,4.33-50.29,19.79-40.97,44,1.99,5.18,8.19,7.52,12.54,3.31,10.57-10.26,21.97-19.45,34.28-27.55l-11.02-4.48c1.34,8.56-4.48,13.1-8.74,19.46-5.42,8.1-2.74,16.72,2.01,24.36,3.96,6.36,13.75,3.69,13.98-3.79.11-3.46.66-6.62,1.64-9.94h-14.46c.44,3.08.18,6.3-.58,9.31-.39,1.54-.89,3.05-1.56,4.49-.42.9-2.97,3.57-.96,2.18l3.79-1.02c-2.96.16-7.31-3.55-9.69-5.16-3.32-2.24-6.48-4.7-9.73-7.04-6.5-4.7-13.39-8.82-21.29-10.63v14.46c11.69-2.17,23.62-1.84,35.2.79v-14.46c-14.58,2.37-29.46.42-44.14,1.54-14.65,1.12-28.25,5.72-41.92,10.81,1.93,4.57,3.85,9.14,5.78,13.71,12.47-7.65,26.97-9.91,41.12-12.53,6.95-1.29,13.91-2.65,20.68-4.71,7.11-2.17,14.86-4.43,17.41-12.17,1.53-4.63-2.55-9.54-7.23-9.49-33.45.36-66.86,2.04-100.17,5.05l1.99,14.73c22.15-7.23,44.99-11.79,68.24-13.39l-6.48-11.29c-1.12,1.69-4.98,2.02-6.82,2.48-3.12.77-6.25,1.51-9.38,2.23-7.2,1.66-14.43,3.19-21.68,4.61-14.16,2.77-28.41,5.09-42.72,6.91-4.02.51-7.5,3.08-7.5,7.5,0,3.91,3.43,7.69,7.5,7.5,20.92-.99,41.86-.59,62.72,1.23l-1.99-14.73c-16.65,2.86-33.4,4.87-50.24,6.1l1.99,14.73c17.34-2.57,34.89-3.51,52.41-3.08v-15c-24.23.31-48.45.62-72.68.93-11.49.15-23.14-.24-34.61.61-5.27.39-10.4,1.25-15.27,3.38-3.8,1.66-7.9,5.84-12.16,5.58l1.99,14.73c7.44-2.74,14.88-5.48,22.32-8.22,5.83-2.14,13.46-3.67,16.79-9.52,3.87-6.82-.6-13.45-4.61-18.84-2.12-2.85-4.24-5.7-6.37-8.55-1.16-1.55-2.32-3.11-3.47-4.66-.47-.63-3.12-3.92-3.11-3.62l-1.02,3.79.58-.97-4.48,3.45,1.18-.42h-3.99c3.61.73,7.79,4.22,10.8,6.34,3.38,2.38,6.42,5.15,8.96,8.42,4.79,6.17,8.97,12.84,17.05,14.92,6.89,1.77,13.6-.76,19.52-4.18,5.03-2.91,10.03-7.39,16.17-6.76v-15c-13.21-1.08-26.42-2.15-39.63-3.23-4.04-.33-7.5,3.68-7.5,7.5,0,4.5,3.47,6.96,7.5,7.5,19.6,2.61,39.38,2.49,59.09,3.62,9.47.54,18.93,1.36,28.27,3.11,1.77.33,4.86.41,6.42,1.42,1.23.79.92.21,1.31,1.94.46,2.02.35,4.42.46,6.49.09.94.13,1.89.12,2.83-.44,1.53.3.86,2.22-2.01,1.93,4.57,3.85,9.14,5.78,13.71,5.64-3.31,11.44-5.63,17.79-7.19,9.37-2.3,5.4-16.77-3.99-14.46-7.52,1.85-14.69,4.79-21.38,8.7-7.56,4.43-2.39,15.41,5.78,13.71,5.62-1.17,8.41-6.47,8.74-11.83.3-4.99.02-11.42-1.52-16.18-3.82-11.82-19.93-12.18-30.08-13.47-26.23-3.34-52.8-1.89-79.01-5.39v15c13.21,1.08,26.42,2.15,39.63,3.23,4.04.33,7.5-3.68,7.5-7.5,0-4.4-3.45-7.08-7.5-7.5-6.19-.64-12.04,1.83-17.28,4.88-3.68,2.14-8.1,6.07-12.48,6.63-5.38.68-8.74-6.41-11.48-9.96-4.67-6.05-10.66-10.63-17.11-14.65-5.92-3.69-14.51-9.01-19.82-1.23s3.37,15.69,7.61,21.38c2.32,3.11,4.65,6.2,6.95,9.33.7.92,1.38,1.85,2.04,2.81.8,2.08,1.3,1.76,1.51-.97-.11-.11-4.27,1.6-4.2,1.57-8.68,3.2-17.36,6.39-26.04,9.59-7.89,2.91-6.7,14.22,1.99,14.73,4.95.29,9.23-1.66,13.38-4.16s8.16-4.26,13.19-4.74c11.7-1.11,23.72-.52,35.47-.67,24.23-.31,48.45-.62,72.68-.93,9.66-.12,9.65-14.76,0-15-18.91-.46-37.7.84-56.4,3.61-8.31,1.23-6.41,15.34,1.99,14.73,18.18-1.32,36.27-3.56,54.23-6.64,3.66-.63,5.83-4.87,5.37-8.23-.52-3.88-3.59-6.18-7.37-6.5-20.87-1.81-41.8-2.22-62.72-1.23v15c16.92-2.16,33.77-4.83,50.49-8.2,8.19-1.65,16.35-3.45,24.47-5.41,7.33-1.77,14.2-3.4,18.59-10.05,3.03-4.59-.91-11.67-6.48-11.29-24.57,1.69-48.81,6.28-72.23,13.92-7.6,2.48-6.86,15.53,1.99,14.73,33.31-3.01,66.73-4.7,100.17-5.05l-7.23-9.49c.53-1.61-1.56-.13-2.32.15-1.52.56-3.06,1.06-4.61,1.54-3.11.95-6.27,1.75-9.44,2.46-6.39,1.44-12.85,2.51-19.28,3.74-12.79,2.43-25.46,5.68-36.66,12.56-6.94,4.26-2.48,16.79,5.78,13.71,13.57-5.06,27.1-9.83,41.69-10.5s29.6.54,44.36-1.85c7.4-1.2,6.9-12.89,0-14.46-14.34-3.26-28.73-3.47-43.18-.79-7.32,1.36-6.98,12.87,0,14.46,13.83,3.16,23.23,15.12,35.77,21.02,3.75,1.76,7.72,3.38,11.81,1.69,3.76-1.55,5.93-5.18,7.59-8.7,3.73-7.92,4.52-16,3.3-24.6-1.1-7.75-12.55-6.5-14.46,0-1.34,4.55-2.03,9.19-2.18,13.93,4.66-1.26,9.32-2.52,13.98-3.79-1.7-2.72-4.03-5.52-2.41-8.64s4.82-5.55,6.69-8.58c4.33-7.03,5.22-14.99,3.96-23.01-.74-4.7-7.3-6.93-11.02-4.48-13.35,8.78-25.85,18.77-37.32,29.89l12.54,3.31c-5.64-14.66,20.52-23.2,30.49-25.55-2.82-3.67-5.65-7.34-8.47-11.02-3.47,5.47-6.93,10.93-10.4,16.4-2.98,4.7-6.6,9.42-8.24,14.81-3.49,11.53,4.85,19.89,13.93,25.34,1.84,1.1,3.79,2.12,5.42,3.53.47.4,1.01,1.46,1.54,1.5l3.45-4.73c-.65-.03-1.29-.15-1.92-.33-4.47-2.07-9.07-4.08-13.58-6.19-10.83-5.06-22.75-7.09-34.62-5.5-3.7.5-6.89,2.47-7.37,6.5-.43,3.64,1.7,7.24,5.37,8.23,9.13,2.47,14.83,12.46,22.55,17.53,10.83,7.12,24,5.29,35.77,1.88,5.8-1.68,11.27-3.71,13.38-9.94,1.77-5.22,1.1-11.42.03-16.71-2.29-11.37-9.22-20.94-18.44-27.72l1.52,11.78c8.4-7.04,16.39-15.04,17.55-26.5,1.08-10.69-5.29-20.59-15.86-23.22s-21.36,1.11-29.65,7.17c-4.67,3.42-8.19,8.02-12.74,11.53-4.35,3.36-9.31,4.14-14.66,3.45-4.02-.52-7.5,3.82-7.5,7.5,0,4.48,3.46,6.98,7.5,7.5h0Z"/>
    <path class="st2" d="M223.11,141.39l.34-.34c.73-.68,1.25-1.48,1.55-2.41.47-.89.68-1.86.65-2.89.04-1.03-.18-2-.65-2.89-.3-.93-.82-1.73-1.55-2.41l-1.52-1.17c-1.17-.68-2.43-1.02-3.79-1.02l-1.99.27c-1.27.36-2.37,1-3.31,1.93l-.34.34c-.73.68-1.25,1.48-1.55,2.41-.47.89-.68,1.86-.65,2.89-.04,1.03.18,2,.65,2.89.3.93.82,1.73,1.55,2.41l1.52,1.17c1.17.68,2.43,1.02,3.79,1.02l1.99-.27c1.27-.36,2.37-1,3.31-1.93h0Z"/>
    <path class="st2" d="M230.48,126.19h-9.25c-3.92,0-7.68,3.45-7.5,7.5s3.3,7.5,7.5,7.5h9.25c3.92,0,7.68-3.45,7.5-7.5s-3.3-7.5-7.5-7.5h0Z"/>
    <path class="st2" d="M242.48,86.32c-21.77,1.79-43.59,2.83-65.43,3.12-9.64.13-9.67,15.13,0,15,21.84-.29,43.66-1.32,65.43-3.12,9.55-.79,9.64-15.79,0-15h0Z"/>
    <path class="st2" d="M255.03,157.14c6.55,3.18,13.6,6.18,21.05,5.91,3.2-.11,6.35-.74,9.31-1.96,1.56-.64,2.96-1.34,4.34-2.29.81-.56,2.83-2.83,3.61-3.01-3.08-3.08-6.15-6.15-9.23-9.23-.26,1.8.47.68-1.22,1.08-1.55.37-3.59.08-5.14-.16-3.45-.54-6.37-1.9-9.29-3.76-8.16-5.2-15.7,7.77-7.57,12.95,10.16,6.48,35.1,11.44,37.69-6.12.82-5.6-3.19-10.67-9.23-9.23-4.85,1.16-7.29,5.97-12.25,6.67s-10.14-1.69-14.5-3.81c-8.65-4.19-16.26,8.74-7.57,12.95h0Z"/>
    <path class="st2" d="M81.09,149.82c9.52,4.54,20.23-3.34,26.65-10.1s-3.94-17.62-10.61-10.61c-2.44,2.57-7.48,7.69-11.32,7.17l3.79,1.02-.93-.44c-3.65-1.74-8.1-1.01-10.26,2.69-1.91,3.27-.98,8.51,2.69,10.26h0Z"/>
    <path class="st3" d="M52.8,152.37c2.32,6.65,8.58,8.46,15.08,8.74,8.93.39,18-.16,26.6-2.68,9.49-2.78,18.42-4.11,28.33-4.24s19.73-.14,29.6-.2c20.59-.14,41.18-.27,61.77-.41,4.65-.03,9.3-.07,13.95-.09,2.57-.01,5.12-.4,7.25,1.31,1.54,1.24,2.74,2.95,4.23,4.26,5.58,4.93,12.39,8.19,19.51,10.22,12.55,3.57,42.15,8.79,42.58-11.65.08-3.89-4.98-5.94-7.68-3.18-16.48,16.86-41.35,6.85-56.89-5.78-4.45-3.62-10.27,1.96-6.36,6.36,8.18,9.24,19.34,15.82,31.45,18.32,10.98,2.27,25.45,2.61,34.09-5.69,3.06-2.94-.08-9.23-4.38-7.52-14.12,5.61-29.31,3.85-43.09-1.98-6.72-2.84-12.39-7.62-19.02-10.46-7.04-3.01-16.71-.66-24.16-.43-34.67,1.08-69.54-3.24-104.16-.88-3.65.25-7.18.87-10.44,2.63-3.6,1.94-6.44,5.08-10.47,6.16-8.93,2.4-16.91-3.62-22.43-9.94-2.74-3.13-7.48-.44-7.68,3.18-.51,8.98,6.38,15.95,14.3,19.04,9.48,3.7,20.51,2.78,29.5-1.83,4.37-2.24,8.11-5.51,12.41-7.85,5.43-2.96,11.24-2.68,17.25-2.8,12.79-.26,25.58-.51,38.37-.77,5.78-.12,5.8-9.12,0-9-10.5.21-20.99.42-31.49.63-9.1.18-18.87-.75-27.26,3.41s-14.62,10.89-24.57,11.46c-7.46.43-20.07-2.7-19.52-12.29l-7.68,3.18c9.15,10.47,24.14,17.64,37.26,9.6,3.27-2.01,5.94-4.68,9.82-5.53,4.37-.95,9.39-.55,13.83-.61,9.23-.12,18.46.02,27.69.25,18.46.46,36.91,1.3,55.38,1.13,4.61-.04,9.22-.15,13.83-.34s10.82-1.65,15.39-.63c3.17.71,5.99,3.36,8.72,5,3.57,2.14,7.28,4.03,11.11,5.67,15.63,6.7,33.37,9.05,49.49,2.64l-4.38-7.52c-6.72,6.45-20.08,4.86-28.27,2.67-9.6-2.57-17.97-7.89-24.54-15.31l-6.36,6.36c10.56,8.59,22.57,15.68,36.37,17.1,12.14,1.25,24.64-2.51,33.25-11.32l-7.68-3.18c-.26,12.58-33.28,2.96-39.44-.16-2.83-1.43-5.51-3.14-7.85-5.29s-4.4-4.95-7.44-6.4c-2.77-1.31-5.85-1.31-8.85-1.3-4.65.01-9.3.06-13.95.09-17.6.12-35.2.23-52.8.35s-33.9-.72-50.64.72c-8.95.77-16.97,4.01-25.7,5.62-4.52.83-9.18.89-13.76.89-2.27,0-9.74.85-10.8-2.17-1.89-5.44-10.59-3.1-8.68,2.39h0Z"/>
    <path class="st3" d="M98.3,154.71c7.76-.59,15.5-.7,23.27-.32,5.79.28,5.77-8.72,0-9-7.77-.38-15.52-.28-23.27.32-5.74.44-5.79,9.44,0,9h0Z"/>
    <path class="st3" d="M68.34,152.25c-2.28-.84-4.56-1.68-6.84-2.52l-2.39,8.68c14.92,3.83,30.74,6.06,44.77-1.82,3.6-2.02,2.4-6.96-1.07-8.22s-6.61-1.25-10.07-.21l3.47,8.22c1.23-.78,2.46-1.56,3.69-2.34,4.88-3.09.37-10.88-4.54-7.77-1.23.78-2.46,1.56-3.69,2.34-4.19,2.65-1.58,9.75,3.47,8.22,2.08-.63,3.28-.51,5.28.21l-1.07-8.22c-11.81,6.64-25.37,4.11-37.84.91-5.69-1.46-7.76,6.71-2.39,8.68l6.84,2.52c5.44,2,7.79-6.69,2.39-8.68h0Z"/>
    <path class="st3" d="M52.86,147.39l.71-6.71-2.95.4c.43,1.44.87,2.88,1.3,4.32l1.45-1.9c-.37-.05-.9-.35-1.33-.45-.65-.15-1.36-.15-1.95.2-1.52.9-1.09,2.71-.77,4.12.64,2.81,1.71,5.52,3.1,8.04.8,1.45,3.36.46,2.74-1.16-1.75-4.55-2.5-9.35-2.21-14.22l-2.8.76c1.95,3.05,4.44,5.65,7.39,7.75.66.47,1.67.12,2.05-.54.44-.75.12-1.58-.54-2.05-2.51-1.79-4.65-4.08-6.31-6.68-.82-1.28-2.71-.73-2.8.76-.31,5.1.48,10.25,2.32,15.02l2.74-1.16c-1.02-1.84-1.83-3.77-2.41-5.8-.14-.5-.27-1.01-.39-1.52-.06-.26-.11-.51-.16-.77-.07-.35.04-.57-.26-.19-.1.2-.26.32-.49.33-.08,0-.07,0,.04.02.14.1.41.13.57.19.49.17.94.27,1.46.34.97.13,1.7-1.06,1.45-1.9-.43-1.44-.87-2.88-1.3-4.32-.51-1.7-2.77-1.23-2.95.4l-.71,6.71c-.09.81.75,1.5,1.5,1.5.88,0,1.41-.69,1.5-1.5h0Z"/>
    <path class="st0" d="M73.54,109.62c-6.83,1.85-13.94,4.18-19.19,9.15-4.76,4.51-7.8,11.27-6.16,17.85,1.54,6.16,6.74,10.85,12.26,13.56,6.56,3.22,14.09,4.39,21.32,3.46,3.74-.48,7.26-1.56,10.74-3.01s7.21-2.97,11.16-3.45,8.2-.5,12.28-.64,8.46-.26,12.7-.36c17.01-.4,34.04-.45,51.05-.32,16.94.13,33.88.44,50.81.77,2.16.04,4.32.08,6.48.13,1.93.04,1.93-2.96,0-3-32.54-.64-65.09-1.29-97.64-.79-8.13.12-16.27.32-24.4.6-3.99.14-8.02.17-11.98.7-3.67.49-7.02,1.69-10.43,3.12s-6.71,2.62-10.32,3.18-7.16.54-10.67-.02c-6.34-1-12.78-3.65-17.11-8.53-2.15-2.42-3.64-5.49-3.72-8.77-.1-3.65,1.39-7.18,3.61-10.03,4.82-6.2,12.71-8.74,20-10.71,1.86-.5,1.07-3.4-.8-2.89h0Z"/>
    <path class="st0" d="M237.72,146.06c10.3,11.27,25.85,18.88,41.29,18.67,7.57-.11,14.08-3.52,18.4-9.73,4.05-5.82,5.5-13.05,4.55-20.02-1.21-8.89-5.85-16.88-11.55-23.66-1.24-1.48-3.36.65-2.12,2.12,8.71,10.36,15.04,25.25,7.74,38.11-3.26,5.75-8.71,9.64-15.38,10.11-7.21.51-14.79-1.3-21.42-4.06-7.37-3.07-14.01-7.77-19.39-13.66-1.31-1.43-3.42.7-2.12,2.12h0Z"/>
    <path class="st2" d="M72.41,108.72l1.97,3.53c.36.65,1.2.9,1.87.61s1.12-1.06.87-1.77c-.63-1.79-1.66-3.41-3.09-4.67-1.12-.99-2.85-.04-2.51,1.46s.91,3,1.64,4.38l2.59-1.51c-1.69-3-3.24-6.17-4.49-9.29-.29-.73-1.01-1.32-1.85-1.05-.7.23-1.36,1.07-1.05,1.85,1.38,3.44,2.97,6.78,4.8,10.01.4.7,1.36.94,2.05.54.73-.42.92-1.33.54-2.05-.61-1.16-1.03-2.31-1.34-3.67l-2.51,1.46c.28.24.54.5.79.77.31.35.37.43.59.75.21.31.39.62.56.95.22.43.22.45.37.88l2.74-1.16-1.97-3.53c-.39-.71-1.36-.94-2.05-.54s-.93,1.34-.54,2.05h0Z"/>
    <g class="st1">
      <path class="st0" d="M60.51,124.67c-1.5.74-2.49,2.19-3.01,3.74-.57,1.69-.48,3.53-.37,5.28.05.78.65,1.54,1.5,1.5.77-.03,1.55-.66,1.5-1.5-.05-.77-.1-1.55-.08-2.32,0-.19.01-.39.03-.58,0-.05.06-.63.02-.32.05-.35.12-.7.22-1.04.04-.15.1-.29.15-.44.06-.16.06-.14-.02.04.03-.07.06-.14.1-.21.12-.24.27-.6.48-.79-.28.26.07-.07.13-.13.1-.11.22-.21.33-.31.13-.11.12-.1-.04.02.06-.04.12-.09.19-.13.13-.08.26-.15.4-.22.71-.35.96-1.41.54-2.05-.47-.72-1.3-.91-2.05-.54h0Z"/>
    </g>
    <g class="st1">
      <path class="st0" d="M60.24,141.44c2.87,2.13,6.4,3.29,9.96,3.39.78.02,1.54-.71,1.5-1.5s-.66-1.48-1.5-1.5c-.42-.01-.84-.04-1.25-.08-.1-.01-.21-.02-.31-.04.14.02.12.02-.07-.01-.16-.03-.31-.05-.46-.08-.8-.15-1.59-.35-2.35-.62s-1.18-.44-1.94-.85c-.72-.38-1.4-.82-2.05-1.31s-1.7-.12-2.05.54c-.41.79-.14,1.55.54,2.05h0Z"/>
    </g>
    <g class="st1">
      <path class="st0" d="M81.17,145.14c5.02-.62,9.96-1.62,14.81-3.06,1.85-.55,1.06-3.44-.8-2.89-4.58,1.36-9.27,2.37-14.01,2.95-.8.1-1.5.62-1.5,1.5,0,.73.69,1.6,1.5,1.5h0Z"/>
    </g>
    <g class="st1">
      <path class="st0" d="M78.41,100.49c-2.74-2.57-4.72-5.75-5.79-9.3-.23-.78-1.05-1.27-1.85-1.05s-1.28,1.07-1.05,1.85c1.21,4.04,3.48,7.74,6.56,10.63.59.55,1.54.59,2.12,0s.59-1.57,0-2.12h0Z"/>
    </g>
    <g class="st1">
      <path class="st0" d="M75.49,82.3c3.08-4.2,8.44-6.32,13.56-5.71.81.1,1.5-.76,1.5-1.5,0-.89-.69-1.4-1.5-1.5-6.22-.74-12.47,2.19-16.15,7.19-.48.65-.11,1.67.54,2.05.76.45,1.57.12,2.05-.54h0Z"/>
    </g>
    <g class="st1">
      <path class="st0" d="M101.42,78.97c.42.27.83.56,1.23.85s-.21-.17.17.13c.1.08.2.16.29.24.19.16.38.32.57.49.77.68,1.49,1.41,2.15,2.19.16.19.32.38.48.58s0,0,.09.11c.07.1.15.2.22.3.29.4.57.82.84,1.24.55.89,1.04,1.83,1.46,2.79.31.72,1.43.94,2.05.54.75-.48.87-1.28.54-2.05-1.78-4.1-4.82-7.59-8.57-10-.66-.43-1.68-.16-2.05.54-.39.74-.17,1.6.54,2.05h0Z"/>
    </g>
    <g class="st1">
      <path class="st0" d="M249.9,88.7c2.72-6.63,9.86-9.9,15.93-12.74.73-.34.92-1.4.54-2.05-.44-.75-1.32-.88-2.05-.54-6.96,3.26-14.23,7.03-17.31,14.53-.31.75.33,1.65,1.05,1.85.86.24,1.54-.3,1.85-1.05h0Z"/>
    </g>
    <g class="st1">
      <path class="st0" d="M279.79,73.79c4.41-.3,8.95,2.4,10.55,6.53.29.75,1.01,1.28,1.85,1.05.72-.2,1.34-1.09,1.05-1.85-2.09-5.37-7.63-9.12-13.45-8.73-.81.05-1.5.65-1.5,1.5,0,.77.69,1.55,1.5,1.5h0Z"/>
    </g>
    <g class="st1">
      <path class="st0" d="M291.14,89.93c1,2.13.5,4.72-.6,6.71-1.22,2.2-3.09,3.92-5.01,5.5-.63.52-.53,1.59,0,2.12.62.62,1.49.52,2.12,0,2.28-1.88,4.51-4.03,5.8-6.73,1.38-2.89,1.66-6.17.28-9.11-.35-.73-1.4-.92-2.05-.54-.75.44-.88,1.32-.54,2.05h0Z"/>
    </g>
    <g class="st1">
      <path class="st0" d="M282.75,119.62c2.88,4.19,4.79,9.02,5.4,14.08.1.8.62,1.5,1.5,1.5.73,0,1.6-.69,1.5-1.5-.68-5.59-2.62-10.94-5.81-15.59-.46-.67-1.32-.97-2.05-.54-.66.39-1,1.38-.54,2.05h0Z"/>
    </g>
    <g class="st1">
      <path class="st0" d="M288.18,146.42c.6,2.45-1.73,4.34-3.82,4.99-2.93.92-6.07.51-9.08.91-.8.1-1.5.61-1.5,1.5,0,.73.69,1.61,1.5,1.5,3.72-.48,7.58.05,11.11-1.48,3.18-1.37,5.55-4.66,4.68-8.22-.46-1.87-3.35-1.08-2.89.8h0Z"/>
    </g>
    <g class="st1">
      <path class="st0" d="M262.3,147.95c-4.63-1.44-8.81-4.04-12.18-7.52-1.35-1.39-3.47.73-2.12,2.12,3.73,3.85,8.4,6.69,13.51,8.29,1.85.58,2.64-2.32.8-2.89h0Z"/>
    </g>
    <path class="st2" d="M52.23,138.74c1.56,2.97,3.93,5.49,6.78,7.26.67.41,1.68.16,2.05-.54s.17-1.61-.54-2.05c-.32-.2-.64-.41-.95-.63-.07-.05-.15-.11-.22-.16-.04-.03-.29-.21-.11-.08s-.07-.06-.11-.08c-.09-.07-.17-.14-.25-.21-.57-.48-1.12-.99-1.62-1.54-.25-.27-.49-.54-.72-.82-.06-.07-.11-.14-.17-.21-.23-.29.19.26-.03-.04-.11-.15-.22-.29-.32-.44-.44-.63-.84-1.28-1.19-1.96s-1.39-.96-2.05-.54c-.71.46-.93,1.31-.54,2.05h0Z"/>
    <path class="st3" d="M49.84,145.4c-.11-1.64-.16-3.29-.14-4.93l-.7.19c.06.11.12.21.18.32.06.12.1.2.14.3.09.26.11.43.08.7s-.07.52-.07.79c0,.3.03.61.1.9.04.2.27.31.46.26.21-.06.3-.26.26-.46-.06-.26-.08-.52-.07-.8s.07-.55.08-.83c.02-.57-.23-1.08-.51-1.56-.19-.32-.7-.18-.7.19-.02,1.64.03,3.29.14,4.93.01.2.16.38.38.38.19,0,.39-.17.38-.38h0Z"/>
    <path class="st3" d="M49.78,145.07c-.02-.67,0-1.35.03-2.02.01-.2-.18-.38-.38-.38-.21,0-.36.16-.38.38-.03.67-.04,1.35-.03,2.02,0,.2.17.38.38.38s.38-.16.38-.38h0Z"/>
    <path class="st3" d="M49.08,146.21c.4,2.34,1.02,4.64,1.87,6.86.07.19.25.32.46.26.18-.05.33-.27.26-.46-.85-2.22-1.47-4.52-1.87-6.86-.03-.2-.28-.31-.46-.26-.21.06-.3.26-.26.46h0Z"/>
    <path class="st3" d="M56.53,155.1c.48,0,.48-.75,0-.75s-.48.75,0,.75h0Z"/>
    <path class="st2" d="M293.64,153.7c-.16.15-.3.32-.41.51-.19.33.18.69.51.51.19-.1.32-.24.44-.41s.03-.41-.13-.51c-.19-.11-.39-.03-.51.13-.96,1.29-2.1,2.46-3.37,3.45-.62.49-1.28.94-1.97,1.34-.36.21-.73.38-1.14.45s-.81.1-1.19.3l.55.42c.17-.41.53-.75.94-.92.11-.05.23-.08.34-.1.05-.01.21,0,.19-.05.06.16-.37.32-.46.36-1.14.52-2.38.87-3.62,1.04-.2.03-.37.15-.38.38,0,.18.17.4.38.38.9-.12,1.79-.31,2.65-.6.42-.14.82-.3,1.22-.48.35-.16.73-.33.89-.71.14-.33.06-.77-.26-.97s-.76-.1-1.09.02c-.71.25-1.24.78-1.53,1.47-.14.32.29.56.55.42.36-.19.78-.17,1.17-.26.44-.1.85-.31,1.24-.54.71-.42,1.39-.9,2.04-1.41,1.32-1.04,2.49-2.26,3.49-3.61l-.65-.38c-.05.07-.1.1-.17.14l.51.51c.08-.14.17-.25.29-.36.36-.33-.17-.86-.53-.53h0Z"/>
  </g>
  <g id="Lager_2">
    <g>
      <path class="st0" d="M121.99,125.16l-2.88-18.87h2.44l1.76,12.25c.28,2.02.43,2.99.52,4.17h.08c.5-1.1,1.09-2.47,2.24-4.56l6.5-11.86h2.68l-10.6,18.87h-2.73Z"/>
      <path class="st0" d="M147.46,117.32c0,4.44-3.4,8.18-8.08,8.18-3.69,0-5.96-2.62-5.96-5.88,0-4.75,3.49-8.33,8.02-8.33,3.96,0,6.02,2.82,6.02,6.04ZM135.94,119.56c0,2.42,1.6,4.04,3.77,4.04,2.82,0,5.24-2.8,5.24-6.24,0-1.64-.89-4.17-3.73-4.17-3.15,0-5.28,3.12-5.28,6.37Z"/>
      <path class="st0" d="M167.83,107.12c-.38-.2-.92-.3-1.47-.3-1.94,0-2.85,1.77-3.28,4.15l-.12.65h3.17l-.38,1.91h-3.16l-2.19,11.63h-2.43l2.21-11.63h-5.91l-2.19,11.63h-2.42l2.2-11.63h-1.85l.38-1.91h1.85l.1-.58c.32-1.66.93-3.41,2.11-4.59.82-.81,1.93-1.34,3.41-1.34.75,0,1.38.17,1.87.41l-.73,1.88c-.31-.16-.76-.28-1.18-.28-1.95,0-2.7,1.96-3.08,3.93l-.1.56h5.92l.12-.69c.35-2,1.05-3.82,2.33-4.94.9-.8,2.15-1.22,3.33-1.22,1.03,0,1.67.2,2.01.4l-.51,1.94Z"/>
      <path class="st0" d="M173.44,116.58l-.35,1.85h-6.88l.35-1.85h6.88Z"/>
      <path class="st0" d="M181.2,107.96l-.69,3.66h3.46l-.38,1.91h-3.46l-1.18,6.2c-.15.77-.29,1.49-.29,2.31s.42,1.41,1.39,1.41c.44,0,.86-.04,1.19-.13l-.1,1.91c-.39.17-1.16.27-1.91.27-2.25,0-3.04-1.38-3.04-2.78,0-.87.12-1.71.31-2.66l1.27-6.53h-2.04l.38-1.91h2.04l.57-3.08,2.49-.58Z"/>
      <path class="st0" d="M184.45,125.16l1.63-8.59c.33-1.75.55-3.61.72-4.95h2.14c-.13,1.02-.27,2.04-.43,3.08h.08c.9-1.92,2.44-3.41,4.4-3.41.24,0,.56.02.76.06l-.47,2.35c-.2-.04-.43-.06-.75-.06-2.08,0-3.97,2.41-4.62,5.93l-1.05,5.6h-2.42Z"/>
      <path class="st0" d="M208.11,111.62l-1.88,9.83c-.25,1.35-.46,2.58-.6,3.71h-2.19l.41-2.7h-.06c-1.26,1.79-3.21,3.04-5.17,3.04-1.78,0-4.01-.68-4.01-4.3,0-.62.08-1.37.27-2.33l1.4-7.25h2.42l-1.38,7.23c-.14.75-.23,1.4-.23,1.94,0,1.59.65,2.68,2.5,2.68s4.22-2.02,4.82-5.19l1.27-6.65h2.42Z"/>
      <path class="st0" d="M220.28,124.52c-.76.38-2.37.98-4.51.98-3.74,0-5.71-2.41-5.71-5.37,0-4.84,3.81-8.84,8.82-8.84,1.49,0,2.85.46,3.31.74l-.71,1.88c-.63-.31-1.52-.62-2.74-.62-3.75,0-6.16,3.28-6.16,6.52,0,2.28,1.34,3.72,3.78,3.72,1.65,0,2.88-.52,3.62-.89l.29,1.88Z"/>
      <path class="st0" d="M223.09,125.16l3.82-20.05h2.42l-2.44,12.73h.06c.45-.49.99-1.01,1.39-1.39l5.21-4.83h3.06l-6.34,5.52,4.52,8.02h-2.72l-3.65-6.68-1.95,1.61-.95,5.07h-2.42Z"/>
    </g>
  </g>
</svg>